#!OML:ASF I:\Actors\actors\Patient Classification 2\Patient 1\Session 1\actor1.ASF
:FULLY-SPECIFIED
:DEGREES
284
root -1.18391 18.146 5.62807 -0.170051 -10.3185 -6.1188
lowerback 9.72022 3.56033 0.38587
upperback -0.557512 4.58533 -3.28221
thorax -5.72922 2.19438 -4.31685
lowerneck -7.85209 -13.3214 -8.91873
upperneck -1.56707 -17.3471 12.4821
head 2.66491 -8.39727 4.08997
rclavicle -2.5842e-015 -1.59028e-014
rhumerus 43.6365 39.9615 -24.0846
rradius 87.0203
rwrist -6.37887
rhand 17.0494 -21.4697
rfingers 7.12502
rthumb 41.7771 -46.134
lclavicle -2.5842e-015 -1.59028e-014
lhumerus -32.4516 -14.1526 71.8161
lradius 72.8825
lwrist 14.7588
lhand -4.46322 -21.4304
lfingers 7.12502
lthumb 21.3091 7.41811
rfemur 8.20161 4.0638 22.9493
rtibia -4.77083e-015
rfoot -13.9166 -8.86949
rtoes 2.0208
lfemur 22.4869 0.162963 -10.159
ltibia -24.2376
lfoot 2.44364 20.3312
ltoes -14.1016
285
root -1.18941 18.1417 5.61811 -0.177809 -9.96858 -6.3469
lowerback 9.95214 3.81881 0.354174
upperback -0.425086 4.93417 -3.11729
thorax -5.7119 2.37054 -4.18511
lowerneck -7.87748 -13.6613 -9.18362
upperneck -1.75415 -17.7556 12.3757
head 2.66414 -8.60202 4.05941
rclavicle -9.93923e-017 -3.02153e-014
rhumerus 42.7896 45.255 -23.7137
rradius 88.6262
rwrist -5.62179
rhand 15.4339 -21.6046
rfingers 7.12502
rthumb 40.2599 -46.7518
lclavicle -9.93923e-017 -3.02153e-014
lhumerus -32.1726 -14.5333 73.2017
lradius 73.4488
lwrist 14.7956
lhand -4.77021 -21.7171
lfingers 7.12502
lthumb 21.0142 7.16439
rfemur 8.21407 3.68046 23.1764
rtibia 1.51076e-014
rfoot -13.8719 -8.80255
rtoes 2.26568
lfemur 22.494 -0.451913 -10.0194
ltibia -24.4373
lfoot 2.49802 20.6604
ltoes -14.0533
286
root -1.18128 18.1425 5.60333 -0.00536048 -9.8274 -6.648
lowerback 10.2356 4.08297 0.525309
upperback -0.442926 5.31167 -2.96425
thorax -5.86283 2.54966 -4.19852
lowerneck -7.70603 -13.9125 -9.55032
upperneck -1.98057 -18.0561 12.4148
head 2.63465 -8.75753 4.10807
rclavicle 4.81059e-014 -9.54166e-015
rhumerus 40.8351 49.8663 -25.1777
rradius 90.0642
rwrist -5.93641
rhand 15.3638 -21.9187
rfingers 7.12502
rthumb 40.194 -47.0859
lclavicle 4.81059e-014 -9.54166e-015
lhumerus -32.1545 -14.758 74.6434
lradius 74.2483
lwrist 14.5617
lhand -5.2198 -20.7347
lfingers 7.12502
lthumb 20.5822 8.19417
rfemur 7.96322 3.52643 23.4116
rtibia -1.51076e-014
rfoot -13.7166 -8.79165
rtoes 2.38416
lfemur 22.362 -0.873898 -9.88044
ltibia -24.6963
lfoot 2.58357 21.0668
ltoes -14.3322
287
root -1.19257 18.1404 5.59896 0.181732 -8.93092 -7.00184
lowerback 10.2242 4.06221 0.621089
upperback -0.344114 5.3083 -2.78296
thorax -5.76073 2.55097 -4.05374
lowerneck -7.44996 -14.1325 -9.89725
upperneck -2.36399 -18.3204 12.6209
head 2.55861 -8.89803 4.21598
rclavicle -1.35174e-014 2.8625e-014
rhumerus 37.2993 53.6463 -28.7169
rradius 91.1934
rwrist -5.31984
rhand 14.6535 -21.1413
rfingers 7.12502
rthumb 39.5254 -46.5088
lclavicle -1.35174e-014 2.8625e-014
lhumerus -32.1894 -14.7689 75.9174
lradius 74.5434
lwrist 14.4398
lhand -5.78243 -20.8977
lfingers 7.12502
lthumb 20.0415 8.08866
rfemur 7.85323 2.60421 23.7816
rtibia 1.11319e-014
rfoot -13.6913 -8.64974
rtoes 2.44157
lfemur 22.0643 -1.38601 -9.4777
ltibia -24.9752
lfoot 2.86507 20.8775
ltoes -14.6869
288
root -1.20327 18.1357 5.5945 0.343175 -8.04737 -7.27988
lowerback 10.1335 4.01511 0.824351
upperback -0.198463 5.27737 -2.70799
thorax -5.5469 2.53748 -4.06664
lowerneck -7.16591 -14.3865 -10.1519
upperneck -2.75265 -18.6422 12.8176
head 2.47497 -9.06912 4.30518
rclavicle 3.79679e-014 3.81667e-014
rhumerus 32.1451 56.4196 -34.1908
rradius 92.0478
rwrist -4.51404
rhand 17.2253 -20.1551
rfingers 7.12502
rthumb 41.9421 -44.7645
lclavicle 3.79679e-014 3.81667e-014
lhumerus -32.3075 -14.6411 76.9796
lradius 74.3789
lwrist 14.3508
lhand -6.11805 -22.3257
lfingers 7.12502
lthumb 19.7189 6.69415
rfemur 7.74443 1.69878 24.0699
rtibia -3.57812e-014
rfoot -13.6461 -8.47749
rtoes 2.62686
lfemur 21.7676 -1.87411 -9.12841
ltibia -25.2421
lfoot 3.17867 20.6074
ltoes -14.8522
289
root -1.21682 18.1273 5.59361 0.372526 -7.2176 -7.46392
lowerback 10.1236 4.10424 0.637962
upperback -0.0899454 5.39207 -2.40723
thorax -5.46522 2.60534 -3.65681
lowerneck -6.53974 -14.6937 -10.7956
upperneck -3.17293 -19.037 13.039
head 2.37593 -9.2846 4.46929
rclavicle 3.27995e-014 2.38542e-014
rhumerus 25.5678 58.3929 -40.4438
rradius 92.8876
rwrist -3.91713
rhand 15.9408 -19.745
rfingers 7.12502
rthumb 40.7365 -44.7445
lclavicle 3.27995e-014 2.38542e-014
lhumerus -32.6511 -14.4997 78.5123
lradius 74.3982
lwrist 13.8827
lhand -5.87636 -22.5667
lfingers 7.12502
lthumb 19.9512 6.42907
rfemur 7.78913 0.839672 24.2698
rtibia -1.11319e-014
rfoot -13.6392 -8.27694
rtoes 2.90197
lfemur 21.6101 -2.29716 -8.85289
ltibia -25.4712
lfoot 3.51635 20.2044
ltoes -15.3578
290
root -1.23143 18.12 5.5958 0.34706 -6.51921 -7.5558
lowerback 10.1486 4.24423 0.400492
upperback 0.0237316 5.56587 -2.13892
thorax -5.39832 2.70233 -3.26484
lowerneck -5.96253 -15.0073 -11.4613
upperneck -3.49728 -19.4527 13.2989
head 2.3253 -9.50592 4.63657
rclavicle 5.1684e-015 1.27222e-014
rhumerus 18.4991 59.4506 -46.8771
rradius 93.8289
rwrist -3.57247
rhand 14.6605 -19.2944
rfingers 7.12502
rthumb 39.532 -44.66
lclavicle 5.1684e-015 1.27222e-014
lhumerus -33.0072 -14.4455 80.0097
lradius 74.6888
lwrist 13.2631
lhand -5.2328 -21.2799
lfingers 7.12502
lthumb 20.5697 7.65032
rfemur 7.88713 0.10916 24.3734
rtibia -3.65764e-014
rfoot -13.7068 -8.04777
rtoes 3.52306
lfemur 21.5183 -2.61808 -8.66483
ltibia -25.6426
lfoot 3.74338 19.8238
ltoes -15.4673
291
root -1.24044 18.1182 5.59998 0.440871 -5.9546 -7.60089
lowerback 10.0051 4.31396 0.230332
upperback 0.100933 5.65179 -1.93994
thorax -5.26892 2.75436 -2.95802
lowerneck -5.63164 -15.2647 -11.8252
upperneck -3.61811 -19.7999 13.2945
head 2.31004 -9.68709 4.67274
rclavicle 1.78906e-014 -3.81667e-014
rhumerus 13.6879 60.3738 -50.4813
rradius 95.0726
rwrist -4.10048
rhand 12.3893 -19.8363
rfingers 7.12502
rthumb 37.3888 -45.7993
lclavicle 1.78906e-014 -3.81667e-014
lhumerus -33.5076 -14.1725 81.2327
lradius 74.7201
lwrist 12.9477
lhand -4.88264 -20.8074
lfingers 7.12502
lthumb 20.9062 8.08607
rfemur 7.82746 -0.475356 24.4141
rtibia 1.59028e-015
rfoot -13.7506 -7.86254
rtoes 4.1817
lfemur 21.3017 -2.90475 -8.56044
ltibia -25.7499
lfoot 3.90561 19.5772
ltoes -15.2726
292
root -1.24691 18.1195 5.60606 0.495482 -5.45778 -7.63978
lowerback 9.86622 4.30479 0.162055
upperback 0.148007 5.64158 -1.79608
thorax -5.16347 2.75498 -2.75426
lowerneck -5.28254 -15.4411 -11.9784
upperneck -3.70809 -20.0536 13.1726
head 2.25773 -9.82558 4.66094
rclavicle 4.23411e-014 1.90833e-014
rhumerus 6.08894 60.2152 -57.8989
rradius 95.3207
rwrist -3.02425
rhand 11.2416 -19.8577
rfingers 7.12502
rthumb 36.303 -46.0992
lclavicle 4.23411e-014 1.90833e-014
lhumerus -34.1226 -13.7007 82.1997
lradius 74.4662
lwrist 12.7323
lhand -4.89596 -20.9256
lfingers 7.12502
lthumb 20.8934 7.9693
rfemur 7.81178 -0.99684 24.4584
rtibia 7.95139e-015
rfoot -13.742 -7.81123
rtoes 4.02987
lfemur 21.1238 -3.19053 -8.49244
ltibia -25.7933
lfoot 4.02789 19.4001
ltoes -15.3119
293
root -1.25157 18.1195 5.61059 0.350595 -5.08345 -7.60197
lowerback 10.0097 4.28902 0.119417
upperback 0.176544 5.61819 -1.72644
thorax -5.22596 2.74404 -2.66649
lowerneck -4.885 -15.5532 -11.9805
upperneck -3.75887 -20.2384 13.0219
head 2.18419 -9.93315 4.6331
rclavicle 5.98342e-014 -3.18055e-015
rhumerus 0.505127 60.2132 -62.9454
rradius 95.6055
rwrist -2.79153
rhand 9.68581 -19.6178
rfingers 7.12502
rthumb 34.8283 -46.2138
lclavicle 5.98342e-014 -3.18055e-015
lhumerus -34.5701 -12.895 82.9859
lradius 73.7582
lwrist 12.2954
lhand -4.77659 -21.1461
lfingers 7.12502
lthumb 21.008 7.73603
rfemur 8.00453 -1.41181 24.4221
rtibia -2.06736e-014
rfoot -13.7486 -7.83997
rtoes 3.39503
lfemur 21.1647 -3.50939 -8.54481
ltibia -25.7757
lfoot 4.01787 19.3321
ltoes -15.4031
294
root -1.25343 18.118 5.61232 0.180623 -4.83601 -7.47405
lowerback 10.3007 4.25046 0.130143
upperback 0.124541 5.56208 -1.77448
thorax -5.43999 2.71118 -2.74349
lowerneck -4.36907 -15.5734 -11.8877
upperneck -3.82222 -20.3203 12.9807
head 2.081 -9.99487 4.64547
rclavicle -3.04141e-014 -3.02153e-014
rhumerus -4.36354 59.8915 -67.5278
rradius 95.6654
rwrist -2.63745
rhand 8.65749 -19.2059
rfingers 7.12502
rthumb 33.8519 -46.0224
lclavicle -3.04141e-014 -3.02153e-014
lhumerus -34.9308 -11.8245 83.5222
lradius 72.7776
lwrist 11.7029
lhand -4.47762 -21.2431
lfingers 7.12502
lthumb 21.2952 7.60693
rfemur 8.19785 -1.69844 24.2764
rtibia 1.27222e-014
rfoot -13.7971 -7.83204
rtoes 3.36564
lfemur 21.2294 -3.75717 -8.70704
ltibia -25.7014
lfoot 3.96912 19.2674
ltoes -15.4152
295
root -1.25511 18.1167 5.61398 0.0844588 -4.67444 -7.36479
lowerback 10.5365 4.19186 0.251089
upperback 0.0522954 5.49129 -1.85779
thorax -5.63146 2.66803 -2.91203
lowerneck -3.8958 -15.5639 -11.8866
upperneck -3.86804 -20.3598 13.1107
head 2.0139 -10.0322 4.71634
rclavicle 5.38706e-014 0
rhumerus -8.40405 59.286 -71.3667
rradius 95.6631
rwrist -2.53079
rhand 7.52555 -19.0862
rfingers 7.12502
rthumb 32.7758 -46.1335
lclavicle 5.38706e-014 0
lhumerus -35.5408 -11.0474 83.8946
lradius 72.1192
lwrist 11.3538
lhand -4.44153 -21.2485
lfingers 7.12502
lthumb 21.3299 7.59764
rfemur 8.3038 -1.89514 24.1584
rtibia -3.02153e-014
rfoot -13.8363 -7.8342
rtoes 3.35059
lfemur 21.2202 -3.8855 -8.83024
ltibia -25.5799
lfoot 3.92177 19.116
ltoes -15.3892
296
root -1.25599 18.1154 5.61756 -0.00369308 -4.59252 -7.30168
lowerback 10.6684 4.12319 0.408221
upperback 0.0340343 5.4167 -1.88499
thorax -5.71079 2.625 -3.02908
lowerneck -3.62328 -15.6035 -11.9524
upperneck -3.78094 -20.4498 13.1922
head 2.02388 -10.0853 4.75472
rclavicle 2.78299e-015 -1.43125e-014
rhumerus -11.6451 58.5182 -74.3295
rradius 95.6657
rwrist -2.31195
rhand 6.34219 -18.9503
rfingers 7.12502
rthumb 31.6493 -46.2259
lclavicle 2.78299e-015 -1.43125e-014
lhumerus -36.1997 -10.3574 84.2383
lradius 71.6533
lwrist 11.0886
lhand -4.42864 -21.2585
lfingers 7.12502
lthumb 21.3423 7.58623
rfemur 8.41461 -2.01462 24.0999
rtibia 3.18055e-015
rfoot -13.8368 -7.87081
rtoes 2.75769
lfemur 21.233 -4.01077 -8.91075
ltibia -25.4283
lfoot 3.77647 19.0055
ltoes -15.3244
297
root -1.25592 18.1132 5.62219 -0.118967 -4.57209 -7.21703
lowerback 10.7633 4.03151 0.468832
upperback 0.0433617 5.30483 -1.83505
thorax -5.75887 2.56795 -3.00175
lowerneck -3.44347 -15.6554 -12.064
upperneck -3.66144 -20.5442 13.1823
head 2.05199 -10.1363 4.76448
rclavicle 1.09332e-014 -4.77083e-015
rhumerus -14.0584 57.8195 -76.4365
rradius 95.5918
rwrist -1.85405
rhand 5.38499 -18.6505
rfingers 7.12502
rthumb 30.7371 -46.1017
lclavicle 1.09332e-014 -4.77083e-015
lhumerus -36.8002 -9.51803 84.5764
lradius 71.1553
lwrist 10.7668
lhand -4.24214 -21.1504
lfingers 7.12502
lthumb 21.5214 7.67393
rfemur 8.56091 -2.0723 24.0085
rtibia 1.74931e-014
rfoot -13.8549 -7.87525
rtoes 2.28664
lfemur 21.3061 -4.14326 -9.03303
ltibia -25.2614
lfoot 3.4964 19.0301
ltoes -14.7685
